<mxfile host="app.diagrams.net" modified="2025-10-09T02:36:16.229Z" agent="Mozilla/5.0 (Macintosh; Intel Mac OS X 10_15_7) AppleWebKit/537.36 (KHTML, like Gecko) Chrome/141.0.0.0 Safari/537.36" etag="1imRarH8URiJsf5g4Av2" version="24.4.8" type="github">
  <diagram name="Page-1" id="uqdRBUYbpWMwamhhAZ4K">
    <mxGraphModel dx="1434" dy="692" grid="1" gridSize="10" guides="1" tooltips="1" connect="1" arrows="1" fold="1" page="1" pageScale="1" pageWidth="850" pageHeight="1100" math="0" shadow="0">
      <root>
        <mxCell id="0" />
        <mxCell id="1" parent="0" />
        <mxCell id="-fmW5HMVFUAjquBi6Vyk-5" value="" style="edgeStyle=orthogonalEdgeStyle;rounded=0;orthogonalLoop=1;jettySize=auto;html=1;" edge="1" parent="1" source="-fmW5HMVFUAjquBi6Vyk-1" target="-fmW5HMVFUAjquBi6Vyk-4">
          <mxGeometry relative="1" as="geometry" />
        </mxCell>
        <mxCell id="-fmW5HMVFUAjquBi6Vyk-7" value="" style="edgeStyle=orthogonalEdgeStyle;rounded=0;orthogonalLoop=1;jettySize=auto;html=1;" edge="1" parent="1" source="-fmW5HMVFUAjquBi6Vyk-1" target="-fmW5HMVFUAjquBi6Vyk-6">
          <mxGeometry relative="1" as="geometry" />
        </mxCell>
        <mxCell id="-fmW5HMVFUAjquBi6Vyk-1" value="有效利用" style="rounded=0;whiteSpace=wrap;html=1;" vertex="1" parent="1">
          <mxGeometry x="360" y="90" width="120" height="60" as="geometry" />
        </mxCell>
        <mxCell id="-fmW5HMVFUAjquBi6Vyk-11" value="" style="edgeStyle=orthogonalEdgeStyle;rounded=0;orthogonalLoop=1;jettySize=auto;html=1;" edge="1" parent="1" source="-fmW5HMVFUAjquBi6Vyk-4" target="-fmW5HMVFUAjquBi6Vyk-10">
          <mxGeometry relative="1" as="geometry" />
        </mxCell>
        <mxCell id="-fmW5HMVFUAjquBi6Vyk-13" style="edgeStyle=orthogonalEdgeStyle;rounded=0;orthogonalLoop=1;jettySize=auto;html=1;entryX=0.5;entryY=0;entryDx=0;entryDy=0;" edge="1" parent="1" source="-fmW5HMVFUAjquBi6Vyk-4" target="-fmW5HMVFUAjquBi6Vyk-12">
          <mxGeometry relative="1" as="geometry" />
        </mxCell>
        <mxCell id="-fmW5HMVFUAjquBi6Vyk-18" style="edgeStyle=orthogonalEdgeStyle;rounded=0;orthogonalLoop=1;jettySize=auto;html=1;" edge="1" parent="1" source="-fmW5HMVFUAjquBi6Vyk-4" target="-fmW5HMVFUAjquBi6Vyk-14">
          <mxGeometry relative="1" as="geometry" />
        </mxCell>
        <mxCell id="-fmW5HMVFUAjquBi6Vyk-4" value="装备" style="rounded=0;whiteSpace=wrap;html=1;" vertex="1" parent="1">
          <mxGeometry x="500" y="230" width="120" height="60" as="geometry" />
        </mxCell>
        <mxCell id="-fmW5HMVFUAjquBi6Vyk-9" value="" style="edgeStyle=orthogonalEdgeStyle;rounded=0;orthogonalLoop=1;jettySize=auto;html=1;" edge="1" parent="1" source="-fmW5HMVFUAjquBi6Vyk-6" target="-fmW5HMVFUAjquBi6Vyk-8">
          <mxGeometry relative="1" as="geometry" />
        </mxCell>
        <mxCell id="-fmW5HMVFUAjquBi6Vyk-24" style="edgeStyle=orthogonalEdgeStyle;rounded=0;orthogonalLoop=1;jettySize=auto;html=1;entryX=0.5;entryY=0;entryDx=0;entryDy=0;" edge="1" parent="1" source="-fmW5HMVFUAjquBi6Vyk-6" target="-fmW5HMVFUAjquBi6Vyk-21">
          <mxGeometry relative="1" as="geometry" />
        </mxCell>
        <mxCell id="-fmW5HMVFUAjquBi6Vyk-25" style="edgeStyle=orthogonalEdgeStyle;rounded=0;orthogonalLoop=1;jettySize=auto;html=1;" edge="1" parent="1" source="-fmW5HMVFUAjquBi6Vyk-6" target="-fmW5HMVFUAjquBi6Vyk-23">
          <mxGeometry relative="1" as="geometry" />
        </mxCell>
        <mxCell id="-fmW5HMVFUAjquBi6Vyk-6" value="食物" style="rounded=0;whiteSpace=wrap;html=1;" vertex="1" parent="1">
          <mxGeometry x="210" y="230" width="120" height="60" as="geometry" />
        </mxCell>
        <mxCell id="-fmW5HMVFUAjquBi6Vyk-8" value="&lt;div&gt;益生菌&lt;/div&gt;" style="rounded=0;whiteSpace=wrap;html=1;" vertex="1" parent="1">
          <mxGeometry x="245" y="370" width="50" height="60" as="geometry" />
        </mxCell>
        <mxCell id="-fmW5HMVFUAjquBi6Vyk-10" value="耳机" style="rounded=0;whiteSpace=wrap;html=1;" vertex="1" parent="1">
          <mxGeometry x="450" y="370" width="50" height="60" as="geometry" />
        </mxCell>
        <mxCell id="-fmW5HMVFUAjquBi6Vyk-12" value="雨伞" style="rounded=0;whiteSpace=wrap;html=1;" vertex="1" parent="1">
          <mxGeometry x="535" y="370" width="50" height="60" as="geometry" />
        </mxCell>
        <mxCell id="-fmW5HMVFUAjquBi6Vyk-14" value="健身包" style="rounded=0;whiteSpace=wrap;html=1;" vertex="1" parent="1">
          <mxGeometry x="620" y="370" width="50" height="60" as="geometry" />
        </mxCell>
        <mxCell id="-fmW5HMVFUAjquBi6Vyk-21" value="&lt;div&gt;水果&lt;/div&gt;" style="rounded=0;whiteSpace=wrap;html=1;" vertex="1" parent="1">
          <mxGeometry x="170" y="370" width="50" height="60" as="geometry" />
        </mxCell>
        <mxCell id="-fmW5HMVFUAjquBi6Vyk-23" value="&lt;div&gt;蛋白质&lt;/div&gt;" style="rounded=0;whiteSpace=wrap;html=1;" vertex="1" parent="1">
          <mxGeometry x="320" y="370" width="50" height="60" as="geometry" />
        </mxCell>
      </root>
    </mxGraphModel>
  </diagram>
</mxfile>
